<?xml version="1.0" standalone="no"?>
<!DOCTYPE svg PUBLIC "-//W3C//DTD SVG 20010904//EN"
 "http://www.w3.org/TR/2001/REC-SVG-20010904/DTD/svg10.dtd">
<svg version="1.0" xmlns="http://www.w3.org/2000/svg"
 viewBox="0 0 2604.000000 2604.000000"
 preserveAspectRatio="xMidYMid meet">
<metadata>
Created by potrace 1.13, written by Peter Selinger 2001-2015
</metadata>
<g transform="translate(0.000000,2604.000000) scale(0.100000,-0.100000)"
fill="royalblue" stroke="none">
<path d="M3815 18144 c-109 -27 -202 -81 -290 -169 -91 -90 -133 -165 -165
-291 -20 -76 -20 -124 -20 -4824 0 -4692 0 -4748 20 -4824 54 -212 196 -364
417 -449 l58 -22 7660 -3 c6977 -2 7666 -1 7733 13 116 26 205 76 299 170 64
63 91 99 118 158 74 155 69 58 72 1310 l4 1127 1018 0 c980 0 1021 1 1095 20
179 45 327 163 405 321 76 154 71 0 71 2179 0 2179 5 2025 -71 2180 -56 113
-161 219 -269 272 -143 70 -92 68 -1227 68 l-1022 0 -4 1128 c-3 1047 -4 1131
-21 1186 -69 231 -233 391 -461 451 -53 13 -836 15 -7710 14 -6640 -1 -7658
-3 -7710 -15z m14645 -5284 l0 -4050 -6935 0 -6935 0 0 4050 0 4050 6935 0
6935 0 0 -4050z m2600 0 l0 -1270 -670 0 -670 0 0 1270 0 1270 670 0 670 0 0
-1270z"/>
<path d="M5380 16312 c-84 -22 -144 -58 -204 -121 -57 -62 -91 -133 -105 -221
-15 -90 -15 -6129 0 -6219 25 -156 125 -276 277 -334 l57 -22 1435 -3 c966 -2
1461 1 1515 8 156 20 275 104 338 238 l32 67 0 3156 0 3155 -38 76 c-59 120
-161 199 -295 227 -38 8 -472 11 -1500 10 -1328 0 -1452 -2 -1512 -17z"/>
<path d="M10030 16319 c-160 -31 -299 -173 -330 -339 -7 -35 -10 -1102 -10
-3124 0 -3315 -3 -3133 50 -3237 44 -86 134 -163 238 -202 l57 -22 1435 -3
c966 -2 1461 1 1515 8 155 20 270 101 337 238 l33 67 0 3155 0 3155 -32 68
c-58 121 -168 208 -301 236 -65 13 -2922 14 -2992 0z"/>
<path d="M14662 16319 c-112 -22 -240 -116 -288 -211 -58 -114 -54 109 -54
-3248 0 -2706 2 -3093 15 -3143 45 -172 177 -291 351 -317 94 -13 2844 -13
2939 0 165 24 299 136 345 289 20 66 20 85 18 3191 l-3 3125 -22 55 c-46 112
-130 193 -251 242 l-57 23 -1475 2 c-811 0 -1494 -3 -1518 -8z"/>
</g>
</svg>
