<?xml version="1.0" standalone="no"?>
<!DOCTYPE svg PUBLIC "-//W3C//DTD SVG 20010904//EN"
 "http://www.w3.org/TR/2001/REC-SVG-20010904/DTD/svg10.dtd">
<svg version="1.0" xmlns="http://www.w3.org/2000/svg"
 viewBox="0 0 2600.000000 2600.000000"
 preserveAspectRatio="xMidYMid meet">
<metadata>
Created by potrace 1.15, written by Peter Selinger 2001-2017
</metadata>
<g transform="translate(0.000000,2600.000000) scale(0.100000,-0.100000)"
fill="royalblue" stroke="none">
<path d="M10403 20679 c-117 -15 -244 -103 -296 -206 -14 -26 -66 -147 -117
-268 -263 -629 -538 -1244 -1130 -2530 -776 -1685 -1103 -2431 -1438 -3280
-785 -1992 -1236 -3708 -1373 -5226 -38 -429 -38 -1108 2 -1489 85 -822 322
-1516 702 -2055 214 -303 517 -609 853 -863 99 -75 338 -231 453 -296 536
-306 1218 -525 1851 -596 448 -49 939 -42 1370 21 599 87 1215 295 1700 573
959 550 1604 1360 1900 2386 317 1097 363 2224 145 3524 -176 1045 -519 2159
-1150 3731 -694 1727 -1010 2439 -1716 3860 -260 525 -353 699 -685 1295 -88
157 -186 346 -218 420 -165 378 -246 522 -345 612 -46 41 -62 63 -71 98 -51
191 -238 314 -437 289z m214 -1534 c22 -44 104 -195 183 -335 275 -491 343
-619 619 -1170 599 -1200 876 -1805 1343 -2940 368 -893 593 -1467 781 -1990
113 -313 287 -837 287 -862 0 -54 -152 -378 -252 -537 -194 -308 -489 -603
-767 -767 -271 -160 -506 -232 -788 -241 -264 -9 -439 29 -668 142 -322 160
-520 357 -975 975 -387 525 -607 771 -861 962 -423 319 -880 402 -1350 247
-193 -64 -405 -172 -566 -290 -37 -27 -68 -47 -70 -45 -5 5 160 513 252 773
395 1126 787 2054 1777 4208 469 1019 707 1545 927 2050 l22 50 33 -75 c18
-41 51 -111 73 -155z"/>
<path d="M16480 20009 c-126 -25 -258 -133 -300 -246 -75 -201 8 -417 197
-512 59 -29 111 -39 319 -56 469 -38 886 -41 1854 -10 245 8 594 17 775 21
360 6 403 12 487 65 64 41 125 110 156 177 23 50 27 70 27 162 0 98 -2 110
-32 172 -58 122 -164 203 -298 227 -63 11 -624 2 -1190 -19 -740 -28 -1363
-23 -1780 15 -88 8 -162 14 -165 14 -3 -1 -25 -5 -50 -10z"/>
<path d="M16579 17672 c-186 -62 -330 -273 -332 -487 -1 -136 41 -241 136
-342 126 -134 272 -173 444 -119 190 60 315 83 526 96 249 16 483 -8 752 -77
131 -34 144 -35 208 -25 184 28 317 159 346 340 21 130 -26 260 -129 355 -66
62 -113 83 -285 127 -370 95 -790 116 -1190 59 l-80 -11 -53 36 c-67 45 -107
57 -207 62 -60 3 -94 -1 -136 -14z"/>
<path d="M16423 15161 c-109 -40 -185 -112 -237 -221 -28 -58 -31 -74 -31
-160 0 -86 3 -101 31 -161 52 -110 129 -181 235 -218 126 -44 770 -77 1349
-68 348 5 1118 25 1710 45 l226 7 65 32 c82 41 151 110 192 193 30 60 32 72
32 170 0 99 -2 110 -32 171 -40 80 -120 159 -200 197 l-58 27 -365 0 c-201 0
-552 -7 -780 -15 -514 -19 -1495 -19 -1695 -1 -259 23 -383 23 -442 2z"/>
<path d="M16579 12837 c-85 -29 -140 -68 -196 -136 -97 -119 -135 -220 -135
-356 0 -187 103 -355 267 -436 57 -28 81 -34 155 -37 75 -4 99 -1 166 22 198
65 408 96 652 96 212 0 387 -21 580 -71 84 -21 171 -39 195 -39 248 2 443 239
393 479 -18 86 -46 141 -102 201 -58 62 -118 93 -261 134 -366 105 -851 134
-1239 72 -76 -12 -82 -12 -105 7 -13 11 -52 33 -87 49 -88 42 -192 48 -283 15z"/>
<path d="M16457 10339 c-88 -21 -185 -89 -236 -166 -104 -157 -89 -358 37
-494 92 -100 155 -124 381 -144 461 -41 1007 -45 1936 -15 336 11 707 20 825
20 247 0 324 12 408 62 69 42 116 96 156 178 29 60 31 73 31 170 0 92 -4 112
-27 162 -51 109 -152 194 -268 224 -58 15 -107 16 -430 10 -201 -3 -556 -13
-790 -21 -728 -26 -1435 -19 -1784 15 -115 12 -187 11 -239 -1z"/>
<path d="M16620 8017 c-80 -18 -144 -54 -200 -111 -108 -112 -148 -194 -175
-358 -10 -61 13 -167 52 -248 66 -137 191 -236 327 -261 72 -13 123 -7 242 31
210 66 449 96 704 87 197 -7 328 -26 510 -74 113 -29 147 -34 212 -31 185 11
337 152 368 344 17 104 -19 230 -90 317 -69 82 -150 119 -385 175 -169 41
-300 59 -517 74 -189 12 -404 3 -597 -26 l-94 -14 -48 33 c-88 60 -208 84
-309 62z"/>
<path d="M16450 5064 c-231 -62 -356 -309 -271 -535 40 -103 145 -204 244
-234 199 -60 1087 -82 2054 -49 257 8 635 19 838 23 349 7 373 9 428 30 343
134 343 614 0 753 -57 23 -64 23 -388 21 -181 -1 -548 -8 -815 -17 -267 -8
-604 -18 -750 -21 -297 -7 -814 8 -1056 30 -192 18 -214 18 -284 -1z"/>
</g>
</svg>
