<?xml version="1.0" standalone="no"?>
<!DOCTYPE svg PUBLIC "-//W3C//DTD SVG 20010904//EN"
 "http://www.w3.org/TR/2001/REC-SVG-20010904/DTD/svg10.dtd">
<svg version="1.0" xmlns="http://www.w3.org/2000/svg"
 viewBox="0 0 2600.000000 2600.000000"
 preserveAspectRatio="xMidYMid meet">
<metadata>
Created by potrace 1.15, written by Peter Selinger 2001-2017
</metadata>
<g transform="translate(0.000000,2600.000000) scale(0.100000,-0.100000)"
fill="royalblue" stroke="none">
<path d="M12970 22527 c-101 -30 -162 -68 -240 -147 -71 -71 -120 -158 -145
-255 -22 -87 -22 -2191 0 -2275 26 -98 74 -180 149 -256 114 -115 243 -168
401 -167 246 2 448 150 532 388 l28 80 0 1090 0 1090 -22 70 c-96 303 -405
470 -703 382z"/>
<path d="M7395 20783 c-242 -84 -399 -316 -382 -563 11 -149 58 -255 166 -373
614 -668 1325 -1432 1365 -1466 211 -181 535 -172 741 20 77 73 119 136 150
228 50 148 40 295 -30 438 -39 78 13 21 -908 1018 -369 399 -547 585 -596 621
-99 73 -169 95 -311 101 -106 3 -121 2 -195 -24z"/>
<path d="M18543 20795 c-81 -22 -171 -72 -231 -128 -113 -107 -1379 -1482
-1422 -1546 -100 -145 -122 -337 -60 -504 99 -263 385 -416 658 -352 69 16
123 41 195 88 53 36 1421 1507 1475 1587 81 121 113 301 78 439 -67 261 -286
432 -549 430 -51 0 -116 -7 -144 -14z"/>
<path d="M12925 18654 c-522 -34 -981 -117 -1441 -260 -1176 -364 -2144 -1071
-2756 -2009 -630 -965 -891 -2184 -763 -3555 88 -936 341 -1696 779 -2340 245
-360 520 -665 996 -1104 594 -547 772 -756 890 -1040 57 -134 75 -220 126
-577 25 -178 48 -327 50 -331 3 -4 1094 -8 2424 -8 l2420 0 5 23 c2 12 23 155
45 317 23 162 50 333 61 380 39 168 133 363 247 515 130 172 251 297 647 665
481 447 713 692 932 985 486 648 772 1402 882 2325 40 328 46 448 46 870 -1
433 -9 563 -56 885 -176 1221 -739 2257 -1630 3000 -836 697 -1896 1127 -3059
1240 -157 16 -708 28 -845 19z m552 -1349 c557 -22 1229 -199 1753 -461 1364
-683 2036 -1942 1940 -3630 -49 -855 -219 -1441 -573 -1969 -182 -272 -370
-479 -807 -883 -456 -423 -636 -608 -812 -834 -162 -208 -303 -444 -390 -653
l-37 -90 -4 1090 c-3 1068 -4 1092 -24 1175 -131 527 -523 880 -1046 941 -152
18 -518 6 -627 -20 -166 -39 -276 -86 -410 -176 -220 -147 -390 -369 -470
-615 -60 -185 -60 -173 -60 -1340 l-1 -1065 -33 80 c-82 199 -208 419 -351
611 -179 241 -376 447 -805 844 -558 516 -782 775 -987 1138 -231 410 -358
845 -425 1462 -19 176 -22 261 -23 595 0 399 4 456 47 745 157 1058 724 1911
1628 2450 604 360 1346 577 2080 609 91 4 197 6 235 4 39 -1 130 -5 202 -8z
m8 -6237 c60 -31 104 -77 136 -138 l24 -45 3 -1007 2 -1008 -420 0 -420 0 0
1003 0 1004 31 61 c34 68 84 114 157 143 41 17 71 19 242 16 190 -2 196 -3
245 -29z"/>
<path d="M10870 6485 l0 -315 2360 0 2360 0 0 315 0 315 -2360 0 -2360 0 0
-315z"/>
<path d="M10870 5605 l0 -315 2360 0 2360 0 -2 313 -3 312 -2357 3 -2358 2 0
-315z"/>
<path d="M10870 4715 l0 -315 261 -2 260 -3 18 -51 c87 -259 428 -497 900
-629 126 -35 308 -71 461 -92 190 -25 737 -25 920 0 350 50 643 134 874 252
252 128 436 311 487 482 l12 43 261 2 261 3 3 313 2 312 -2360 0 -2360 0 0
-315z"/>
</g>
</svg>
